<svg width="487" height="1024" viewBox="0 0 487 1024" fill="none" xmlns="http://www.w3.org/2000/svg">
<path id="Vector 7" d="M129.293 1801.56L128.452 1802.1C120.598 1790.58 111.479 1775.78 102.03 1758.53C102.028 1758.53 102.027 1758.52 102.025 1758.52L-327.566 1050.14L-327.613 1050.06L-327.63 1049.97L-402.781 659.113L-402.817 658.924L-402.717 658.759L263.942 -440.45L263.965 -440.493L264.843 -440.017C250.459 -410.152 252.675 -378.358 263.565 -344.194C273.46 -313.153 290.494 -280.221 308.673 -245.075C310.51 -241.525 312.358 -237.952 314.211 -234.357C354.593 -156.02 397.544 -66.8913 378.499 35.8963C374.106 59.6062 361.767 81.0999 345.354 103.005C335.284 116.444 323.653 130.071 311.363 144.47C303.637 153.522 295.65 162.879 287.628 172.686C246.031 223.535 203.241 286.732 189.604 383.395C177.045 472.422 189.666 551.896 208.467 627.043C215.263 654.209 222.864 680.8 230.375 707.075C233.254 717.148 236.12 727.175 238.923 737.169C249.033 773.228 258.312 808.862 264.371 844.711C266.131 855.123 267.87 865.118 269.547 874.752C279.399 931.376 287.083 975.542 284.121 1018.67C280.651 1069.17 262.589 1118.22 216.444 1184.22C197.468 1211.36 178.667 1233.19 160.661 1253.03C155.621 1258.59 150.644 1263.99 145.744 1269.3C133.134 1282.98 121.032 1296.11 109.651 1309.95C78.0698 1348.35 52.0776 1392.19 36.5658 1468.18C26.5249 1517.37 33.0417 1571.46 47.1119 1622.46C61.1796 1673.45 82.7882 1721.31 102.897 1758.03L129.293 1801.56Z" fill="#2F5061" stroke="#2F5061"/>
</svg>
