<svg width="1253" height="1518" viewBox="0 0 1253 1518" fill="none" xmlns="http://www.w3.org/2000/svg">
<g id="contactVectors">
<path id="topLight" d="M822.325 126.837C826.181 149.377 820.294 178.238 810.107 210.394C802.768 233.559 793.178 258.487 783.343 284.053C779.521 293.989 775.661 304.021 771.883 314.083C758.375 350.052 745.894 386.419 739.768 420.247C733.642 454.081 733.885 485.309 745.759 511.035C811.848 654.226 777.854 749.34 735.084 797.884C639.599 906.258 521.001 902.324 462.645 884.97C383.686 861.489 303.69 802.413 239.621 744.159C175.543 685.898 127.341 628.409 111.966 608.036C33.9163 504.609 30.7814 427.732 55.4233 372.816C80.0408 317.954 132.314 285.174 164.76 269.763C189.223 258.144 209.988 249.888 231.004 241.532L232.001 241.136C253.359 232.644 275.041 223.991 301.211 211.543C353.548 186.649 423.853 146.563 545.34 62.2153C593.554 28.7409 656.941 10.9317 711.21 18.4599C738.351 22.225 763.229 32.3307 782.777 50.0043C802.329 67.6811 816.519 92.9011 822.325 126.837Z" fill="#F4EAE6" stroke="#F4EAE6"/>
<path id="bottomTeal" d="M529.452 600.175C552.2 602.508 578.424 615.921 606.668 634.362C627.014 647.646 648.456 663.573 670.446 679.906C678.992 686.254 687.621 692.663 696.3 699.002C727.327 721.665 759.013 743.445 789.957 758.422C820.906 773.401 851.055 781.544 879.024 777.007C1034.7 751.757 1117.2 810.022 1152.49 864.248C1231.28 985.307 1195.67 1098.5 1163.3 1150.06C1119.49 1219.83 1041.12 1281.04 967.814 1327.13C894.497 1373.23 826.185 1404.24 802.433 1413.59C681.858 1461.03 606.959 1443.43 560.667 1404.95C514.421 1366.52 496.866 1307.37 490.725 1271.98C486.095 1245.3 483.713 1223.08 481.301 1200.59L481.187 1199.52C478.736 1176.67 476.218 1153.46 471.247 1124.91C461.306 1067.81 441.551 989.331 392.889 849.668C373.577 794.241 373.426 728.4 395.238 678.141C406.146 653.005 422.556 631.75 444.826 617.66C467.1 603.567 495.202 596.664 529.452 600.175Z" fill="#4297A0" stroke="#4297A0"/>
</g>
</svg>
