<svg width="1440" height="1024" viewBox="0 0 1440 1024" fill="none" xmlns="http://www.w3.org/2000/svg">
<path id="Vector 10" d="M-4.66825 -197.77L-5.64075 -197.965C-24.7682 -141.317 -33.3725 -59.5684 -21.4779 28.0797L-96.4988 1099.97L-96.534 1100.47L-96.0303 1100.5L1344.47 1188L1344.69 1188.01L1344.84 1187.86L1458.34 1079.86L1458.46 1079.75L1458.49 1079.6C1469.5 1024.55 1476.25 947.579 1480.08 800.847C1483.18 681.675 1430.01 601.304 1370.37 548.864C1310.75 496.436 1244.65 471.919 1221.82 464.408C1118.91 430.543 1044.7 428.114 986.207 438.39C939.289 446.633 902.493 463.053 869.174 477.922C860.968 481.584 852.974 485.151 845.091 488.479C754.161 526.87 567.273 535.384 333.349 457.862C97.5032 379.703 1.99091 193.366 -20.4731 28.0469L-4.66825 -197.77Z" fill="#F4EAE6" stroke="#F4EAE6"/>
</svg>
