<svg width="1440" height="1024" viewBox="0 0 1440 1024" fill="none" xmlns="http://www.w3.org/2000/svg">
<path id="Vector 10" d="M0.721153 -129.962L-0.25135 -130.157C-19.3788 -73.5094 -27.9831 8.23942 -16.0885 95.8876L-91.1094 1167.77L-91.1446 1168.28L-90.6409 1168.31L1349.86 1255.81L1350.08 1255.82L1350.23 1255.67L1463.73 1147.67L1463.85 1147.56L1463.88 1147.41C1474.89 1092.36 1481.64 1015.39 1485.47 868.655C1488.57 749.483 1435.4 669.112 1375.76 616.672C1316.14 564.244 1250.04 539.727 1227.21 532.215C1124.3 498.351 1050.09 495.922 991.597 506.198C944.679 514.441 907.882 530.861 874.563 545.73C866.358 549.391 858.363 552.959 850.481 556.287C759.55 594.678 572.662 603.192 338.738 525.67C102.893 447.511 7.38031 261.174 -15.0837 95.8548L0.721153 -129.962Z" fill="#F4EAE6" stroke="#F4EAE6"/>
</svg>
