<?xml version="1.0" standalone="no"?>
<!DOCTYPE svg PUBLIC "-//W3C//DTD SVG 20010904//EN"
 "http://www.w3.org/TR/2001/REC-SVG-20010904/DTD/svg10.dtd">
<svg version="1.0" xmlns="http://www.w3.org/2000/svg"
 width="512.000000pt" height="512.000000pt" viewBox="0 0 512.000000 512.000000"
 preserveAspectRatio="xMidYMid meet">

<g transform="translate(0.000000,512.000000) scale(0.100000,-0.100000)"
fill="#000000" stroke="none">
<path d="M1375 3874 c-229 -35 -433 -114 -605 -235 -96 -68 -241 -213 -309
-309 -108 -154 -193 -360 -226 -546 -19 -112 -19 -327 0 -440 49 -285 177
-526 383 -726 196 -190 424 -308 684 -354 118 -20 334 -20 449 0 228 41 462
153 630 302 236 210 387 483 435 784 26 163 16 389 -25 544 -35 138 -120 321
-201 434 -189 267 -479 456 -810 528 -73 16 -341 27 -405 18z"/>
<path d="M3493 3781 c-174 -64 -333 -271 -428 -554 -127 -381 -136 -853 -24
-1252 122 -433 377 -694 632 -647 205 38 379 237 491 561 246 707 42 1678
-394 1879 -75 35 -202 41 -277 13z"/>
<path d="M4578 3643 c-35 -38 -53 -77 -83 -178 -58 -201 -84 -430 -92 -800
-10 -512 44 -948 140 -1129 55 -103 104 -110 159 -23 94 151 151 538 152 1037
1 473 -45 835 -130 1019 -47 104 -95 128 -146 74z"/>
</g>
</svg>
