<svg width="1440" height="456" viewBox="0 0 1440 456" fill="none" xmlns="http://www.w3.org/2000/svg">
<path id="Vector 8" d="M-279.663 45.1142L-280.5 44.3521V45.4838V535.984V536.484H-280H1959H1959.5V535.984V224.484V223.8L1958.85 224.008C1927.27 234.078 1896.09 227.443 1863.79 211.887C1834.43 197.753 1804.2 176.286 1771.94 153.375C1768.68 151.061 1765.4 148.732 1762.1 146.394C1690.17 95.4653 1607.92 40.4842 1503.48 44.9843C1479.39 46.0223 1456.38 55.2374 1432.4 68.4298C1417.68 76.5237 1402.57 86.1373 1386.59 96.2953C1376.55 102.681 1366.17 109.282 1355.34 115.856C1299.18 149.942 1230.62 183.484 1133 183.484C1043.09 183.484 966.16 159.884 894.375 130.77C868.426 120.246 843.157 109.005 818.189 97.8972C808.617 93.6389 799.089 89.4002 789.584 85.2291C755.291 70.1806 721.303 56.0156 686.651 45.0073C676.587 41.8101 666.933 38.6919 657.628 35.6862C602.935 18.021 560.276 4.24228 517.161 1.15151C466.669 -2.46805 415.578 8.56578 343.774 45.0379C314.247 60.0357 290.008 75.6034 267.844 90.6607C261.639 94.8761 255.599 99.0499 249.651 103.16C234.346 113.735 219.658 123.885 204.364 133.221C161.927 159.128 114.881 178.74 37.4694 183.485C-24.4008 187.277 -90.1392 165.03 -147.209 135.639C-204.271 106.253 -252.61 69.7537 -279.663 45.1142Z" fill="#2F5061" stroke="#2F5061"/>
</svg>
