<svg width="1048" height="1076" viewBox="0 0 1048 1076" fill="none" xmlns="http://www.w3.org/2000/svg">
<path id="projectsVector" d="M807.622 118.601C816.324 139.748 816.906 169.198 814.014 202.804C811.931 227.014 808.037 253.438 804.044 280.538C802.493 291.07 800.926 301.704 799.444 312.349C794.148 350.404 789.941 388.623 791.378 422.971C792.815 457.325 799.897 487.74 817.121 510.239C912.986 635.464 900.663 735.716 869.572 792.453C800.161 919.12 683.583 941.273 622.843 937.131C540.657 931.526 449.659 891.418 374.381 848.623C299.091 805.821 239.462 760.295 219.995 743.786C121.176 659.979 101.268 585.659 113.276 526.677C125.271 467.754 169.089 424.314 197.368 402.167C218.69 385.469 237.141 372.863 255.815 360.104L256.701 359.499C275.678 346.532 294.937 333.338 317.742 315.458C363.351 279.697 423.161 225.178 523.209 116.255C562.915 73.028 620.857 41.7597 675.456 37.2111C702.763 34.9363 729.25 39.344 752.197 52.3036C775.148 65.2656 794.52 86.7625 807.622 118.601Z" fill="#E57F84" stroke="#E57F84"/>
</svg>
