<svg width="819" height="824" viewBox="0 0 819 824" fill="none" xmlns="http://www.w3.org/2000/svg">
<g id="homeVector">
<path id="top-darkBlue" d="M54.2239 402.431C63.451 389.261 80.6616 377.768 101.615 366.768C116.712 358.843 133.804 351.149 151.328 343.261C158.138 340.196 165.012 337.101 171.86 333.953C196.348 322.693 220.511 310.732 240.252 296.903C259.997 283.071 275.262 267.408 282.029 248.765C319.792 144.72 383.736 114.049 429.083 110.962C530.249 104.076 587.468 164.63 608.007 202.123C635.789 252.835 646.499 321.798 649.677 382.467C652.855 443.149 648.501 495.608 646.105 513.361C633.946 603.477 597.535 643.401 558.078 658.634C518.675 673.846 476.396 664.367 452.605 656.027C434.672 649.74 420.242 643.603 405.643 637.394L404.949 637.098C390.111 630.788 375.037 624.399 355.853 617.686C317.487 604.262 262.665 589.538 160.478 571.607C119.891 564.486 79.4695 542.055 56.1103 511.478C44.4265 496.185 37.0013 478.839 35.9803 460.344C34.9591 441.844 40.3481 422.236 54.2239 402.431Z" fill="#2F5061" stroke="#2F5061"/>
<path id="bottom-coral" d="M753.277 486.29C749.74 489.897 746.248 493.334 742.851 496.678C738.557 500.906 734.414 504.984 730.524 509.066C723.574 516.359 717.499 523.592 712.97 531.532C703.932 547.375 701.003 566.104 709.771 593.845C731.681 663.161 726.076 715.644 691.879 755.824C687.037 761.512 677.221 769.224 664.031 776.514C650.831 783.809 634.218 790.701 615.759 794.729C578.833 802.787 534.494 799.388 495.361 764.807C449.131 723.954 413.685 712.687 380.753 708.033C372.511 706.869 364.424 706.118 356.354 705.423C355.109 705.316 353.866 705.21 352.622 705.104C345.801 704.523 338.977 703.942 332.081 703.144C315.778 701.258 299.05 698.158 280.881 690.967C261.634 686.465 247.234 679.201 237.062 669.745C226.878 660.278 220.956 648.638 218.639 635.442C214.01 609.079 223.769 576.535 242.543 542.627C280.101 474.791 353.934 401.145 422.204 359.825C470.438 330.632 558.909 301.94 681.441 324.746C707.181 329.537 744.722 349.858 766.056 378.992C776.732 393.571 783.37 410.386 782.406 428.585C781.441 446.789 772.874 466.306 753.277 486.29Z" fill="#E57F84" stroke="#E57F84"/>
</g>
</svg>
