<svg width="1122" height="995" viewBox="0 0 1122 995" fill="none" xmlns="http://www.w3.org/2000/svg">
<g id="mobileHomeVector">
<path id="bigBlue" d="M609.406 79.598C629.192 92.6807 646.847 117.622 663.942 148.159C676.257 170.158 688.308 195.111 700.667 220.703C705.471 230.649 710.321 240.692 715.251 250.695C732.874 286.452 751.527 321.717 772.773 350.37C794.021 379.028 817.823 401.018 845.723 410.302C1000.97 461.963 1048.79 555.205 1055.15 622.021C1069.35 771.197 982.177 858.125 927.62 889.952C853.799 933.017 752.312 951.596 662.751 958.709C573.179 965.824 495.463 961.477 469.134 958.644C335.475 944.263 275.094 892.056 251.045 834.431C227.019 776.862 239.33 714.045 250.706 678.558C259.284 651.801 267.78 630.229 276.38 608.396L276.787 607.361C285.526 585.173 294.375 562.625 303.537 533.987C321.862 476.714 341.449 395.062 363.889 243.262C372.794 183.023 404.322 122.426 448.543 86.7168C470.659 68.8577 495.964 57.2128 523.21 54.9714C550.461 52.7296 579.612 59.8983 609.406 79.598Z" fill="#2F5061" stroke="#2F5061"/>
<path id="smallCoral" d="M1062.72 352.326C1059.18 355.933 1055.69 359.37 1052.3 362.714C1048 366.942 1043.86 371.02 1039.97 375.102C1033.02 382.394 1026.94 389.628 1022.42 397.568C1013.38 413.411 1010.45 432.14 1019.22 459.881C1041.13 529.196 1035.52 581.68 1001.32 621.859C996.483 627.548 986.666 635.26 973.476 642.55C960.276 649.845 943.663 656.737 925.204 660.765C888.279 668.823 843.939 665.423 804.807 630.843C758.577 589.99 723.131 578.723 690.199 574.069C681.957 572.905 673.869 572.154 665.799 571.459C664.555 571.351 663.311 571.246 662.067 571.14C655.246 570.559 648.422 569.978 641.526 569.18C625.223 567.294 608.495 564.193 590.326 557.002C571.079 552.501 556.679 545.237 546.507 535.781C536.323 526.314 530.401 514.674 528.084 501.478C523.455 475.115 533.214 442.571 551.988 408.663C589.547 340.826 663.38 267.18 731.65 225.861C779.884 196.668 868.354 167.976 990.886 190.782C1016.63 195.572 1054.17 215.894 1075.5 245.028C1086.18 259.607 1092.82 276.422 1091.85 294.621C1090.89 312.825 1082.32 332.342 1062.72 352.326Z" fill="#E57F84" stroke="#E57F84"/>
</g>
</svg>
