<svg width="1440" height="513" viewBox="0 0 1440 513" fill="none" xmlns="http://www.w3.org/2000/svg">
<path id="Vector 7" d="M-665.663 45.1142L-666.5 44.3521V45.4838V535.984V536.484H-666H1573H1573.5V535.984V224.484V223.8L1572.85 224.008C1541.27 234.078 1510.09 227.443 1477.79 211.887C1448.43 197.753 1418.2 176.286 1385.94 153.375C1382.68 151.061 1379.4 148.732 1376.1 146.394C1304.17 95.4653 1221.92 40.4842 1117.48 44.9843C1093.39 46.0223 1070.38 55.2374 1046.4 68.4298C1031.68 76.5237 1016.57 86.1373 1000.59 96.2953C990.549 102.681 980.168 109.282 969.336 115.856C913.175 149.942 844.62 183.484 747 183.484C657.091 183.484 580.16 159.884 508.375 130.77C482.426 120.246 457.157 109.005 432.189 97.8972C422.617 93.6389 413.089 89.4002 403.584 85.2291C369.291 70.1806 335.303 56.0156 300.651 45.0073C290.587 41.8101 280.933 38.6919 271.628 35.6862C216.935 18.021 174.276 4.24228 131.161 1.15151C80.6691 -2.46805 29.5776 8.56578 -42.2264 45.0379C-71.7532 60.0357 -95.9915 75.6034 -118.156 90.6607C-124.361 94.8761 -130.401 99.0499 -136.349 103.16C-151.654 113.735 -166.342 123.885 -181.636 133.221C-224.073 159.128 -271.119 178.74 -348.531 183.485C-410.401 187.277 -476.139 165.03 -533.209 135.639C-590.271 106.253 -638.61 69.7537 -665.663 45.1142Z" fill="#E57F84" stroke="#E57F84"/>
</svg>
